{"accessors" : [{"bufferView" : 0, "byteOffset" : 0, "componentType" : 5125, "count" : 776538, "type" : "SCALAR", "max" : [776528], "min" : [0]}, {"bufferView" : 1, "byteOffset" : 0, "componentType" : 5126, "count" : 776529, "type" : "VEC3", "max" : [134.8620147705078, 200.00001525878906, 151.59603881835938], "min" : [0, 0, 3.814697265625E-06], "name" : "POSITION"}, {"bufferView" : 1, "byteOffset" : 12, "componentType" : 5126, "count" : 776529, "type" : "VEC3", "max" : [1.0000044107437134, 1.0000044107437134, 1.0000019073486328], "min" : [-0.9999954700469971, -1.0000044107437134, -1.0000044107437134], "name" : "NORMAL"}], "asset" : {"generator" : "Aspose.3D 21.3.1", "version" : "2.0"}, "buffers" : [{"uri" : "buffer.bin", "byteLength" : 21743072}], "bufferViews" : [{"buffer" : 0, "byteOffset" : 0, "byteLength" : 3106152, "target" : 34963}, {"buffer" : 0, "byteOffset" : 3106156, "byteLength" : 18636912, "byteStride" : 24, "target" : 34962}], "meshes" : [{"primitives" : [{"attributes" : {"POSITION" : 1, "NORMAL" : 2}, "indices" : 0, "mode" : 4}]}], "nodes" : [{"mesh" : 0, "name" : ""}], "scene" : 0, "scenes" : [{"nodes" : [0]}]}